#!OML:ASF F:\VICON\USERDATA\INSTALL\rory3\rory3.ASF
:FULLY-SPECIFIED
:DEGREES
63
root 0.8427563470407309 17.90067488831816 27.16227764310969 -3.1345732178474623 -1.1231186864742702 2.6476059052033354
lfemur 1.7452827633582615 -3.181050907923805 -28.369795375687097
ltibia 21.559213924980927
lfoot -15.829040925093615 3.975056888126443
ltoes 1.831439413292053
rfemur -30.311092421651054 -0.577370603416103 19.41759874310227
rtibia 53.368970928964195
rfoot -9.03918174803167 -10.214518775326464
rtoes 1.4564833344631605
lowerback 10.268511443533486 -0.07013008537834797 -3.0675919656165123
upperback 0.6969443802513438 -0.42933269043949074 0.7605113125438068
thorax -4.9755961753376425 -0.13435983850019972 2.579509824722247
lowerneck -16.5916392252078 -2.672545705031327 -2.5733039259917936
upperneck 20.419393113008272 -3.388827138176577 1.3772271826437568
head 9.217032711699334 -1.6329723337359274 0.46314686137135197
lclavicle -1.717705796419227e-15 1.1246170511441172e-15
lhumerus -25.32384603000991 -3.5679485536488222 83.27528037212177
lradius 25.929263209603008
lwrist 5.5553528084790615
lhand -26.812014271462957 24.061450851754582
lfingers 7.12502
lthumb -0.2384844647642349 54.04155834704423
rclavicle -1.7177057964192273e-15 1.1246170511441172e-15
rhumerus -29.50970945783039 -18.789472181982152 -79.50969783232404
rradius 25.6537018081482
rwrist 4.866265428116442
rhand -17.32350705682297 22.5771878702838
rfingers 7.12502
rthumb 8.92302947060847 -7.210724720658021
64
root 0.8095328944703374 17.879010277487545 28.067316163665616 -2.416629153425103 -0.408759201763194 3.1867625709699907
lfemur 5.302677355116476 -2.7033045425708924 -28.757334547092405
ltibia 17.621325820065458
lfoot -16.034117742412768 3.4186421857620592
ltoes 0.9713401172304326
rfemur -30.78728583343113 1.1462581526982452 18.11459894032199
rtibia 40.6028447650159
rfoot -8.737132563884344 -13.965278989574717
rtoes 0.5037060237008242
lowerback 9.94462893093784 -0.39799085438062376 -3.871440526288791
upperback 0.6276541101848782 -0.9424792312236816 0.7966909337303141
thorax -4.842172550624594 -0.37427400013144096 3.1008705966380417
lowerneck -16.651993148589565 -2.6857579559236875 -2.641773390525191
upperneck 20.284181426368626 -3.410751589928697 1.5078048330888556
head 9.179942939641123 -1.6373219894332607 0.5133921689747605
lclavicle -1.6880789279640587e-15 1.1521882881239941e-15
lhumerus -23.075214290016085 -4.86279103428443 83.03214052529552
lradius 27.260997348875584
lwrist 6.507788804658568
lhand -26.852929037686028 24.47134338071032
lfingers 7.12502
lthumb -0.27805944225708384 54.44934050558752
rclavicle -1.6880789279640587e-15 1.1521882881239941e-15
rhumerus -30.035280809118237 -18.762867151141464 -79.32459535366716
rradius 25.578888383524852
rwrist 4.859077031508763
rhand -17.184904463051616 22.898238578753116
rfingers 7.12502
rthumb 9.056757893641018 -6.88255470754254
65
root 0.7491460542565344 17.83634589394208 28.401764432846193 -1.7220905101188477 0.28484173561837567 3.5795739755645726
lfemur 8.694770950654782 -2.4292570744580417 -29.084051899854003
ltibia 13.160413605904488
lfoot -16.15176172256904 2.3619832271854655
ltoes -0.6110083096389385
rfemur -30.5603003090106 3.4887533929093397 16.275423424478184
rtibia 27.3940488500005
rfoot -9.027017864500785 -17.535645485772875
rtoes -0.7441404321798353
lowerback 9.555767292326697 -0.7468912480579334 -4.715674264311461
upperback 0.5126122503058723 -1.4809191639520747 0.80062489770132
thorax -4.717345526747263 -0.6264146742098731 3.5197213950269877
lowerneck -16.69746937870279 -2.7014779576060923 -2.6848960965574324
upperneck 20.196647914552415 -3.4423541682806116 1.6025799465545931
head 9.156293240063203 -1.6451569678214613 0.5433535050498713
lclavicle -2.0731756043876395e-15 7.971105860249701e-16
lhumerus -21.253001458430003 -5.8614467124834055 82.6569666816163
lradius 28.450488549501568
lwrist 7.220623811477433
lhand -26.97463218326427 24.58060686411228
lfingers 7.12502
lthumb -0.39566086840413206 54.55472781912627
rclavicle -2.0731756043876395e-15 7.9711058602497e-16
rhumerus -30.64997728786971 -19.393015543164946 -79.02393414129035
rradius 25.08591409471267
rwrist 5.237224619706887
rhand -17.14642207368954 23.204512016280894
rfingers 7.12502
rthumb 9.093884364352046 -6.572825043872642
66
root 0.6815804054882997 17.77547620798167 29.414147747628135 -1.1860518590339542 0.9894965659614225 3.887153545645598
lfemur 12.10635685561289 -2.4403442835920335 -28.887773979507983
ltibia 10.712132576715266
lfoot -15.99132713112612 1.5027343332906684
ltoes -2.700223003717751
rfemur -29.393526721276316 5.481991900776691 15.180388716405329
rtibia 18.59293289937437
rfoot -9.38919987620493 -18.875853276358402
rtoes -2.0681872592894623
lowerback 9.307882292522562 -0.9687886523383161 -5.178467914235918
upperback 0.4226987248157793 -1.8140571013859952 0.8711229064530713
thorax -4.623267590732203 -0.7831188926898758 3.920770912340428
lowerneck -16.73993402933829 -2.7156126705790413 -2.703771072917356
upperneck 20.18590461238591 -3.468682803718326 1.690898676937576
head 9.165181238655435 -1.6519290321064293 0.5697374147357824
lclavicle -1.842700404670663e-15 1.0085514931144798e-15
lhumerus -19.701909596439553 -6.2164983811790036 82.39624469739641
lradius 29.615144410010394
lwrist 7.756954140148965
lhand -27.203399348270647 24.22628001482187
lfingers 7.12502
lthumb -0.6166211273025263 54.196244708059666
rclavicle -1.842700404670663e-15 1.0085514931144798e-15
rhumerus -31.131332975116386 -20.239563483360612 -78.43664490994516
rradius 24.47266411884282
rwrist 6.109311628929639
rhand -17.213355503739926 23.503205338421363
rfingers 7.12502
rthumb 9.029311369309982 -6.278693690572258
67
root 0.5838759694682987 17.690853587909 29.247587248865706 -1.0118801618518805 1.2941772738380832 3.685578119363153
lfemur 13.991572633155222 -3.1214185656337237 -28.889634948491377
ltibia 9.466670193437007
lfoot -16.25804117671005 0.3560071785759422
ltoes -6.147823783311011
rfemur -29.462107579381296 6.073974912375267 14.84467930071268
rtibia 14.619105672239218
rfoot -9.82250495744675 -17.712622231565653
rtoes -3.701394468033959
lowerback 9.195230818896222 -1.2007585661619387 -5.553196575277844
upperback 0.372707890695817 -2.150092930984874 0.95915462158243
thorax -4.605624397222349 -0.9413031976129946 4.070275930150049
lowerneck -16.863104557259938 -2.7337661020190263 -2.749979274956859
upperneck 20.175400027358307 -3.494429414078763 1.6415557594352268
head 9.175483495527919 -1.6615986502460993 0.5517221585778991
lclavicle -2.586362156249888e-15 3.2306815878322956e-16
lhumerus -19.035708842079714 -6.5069572698750076 82.21754964612077
lradius 30.299625370854233
lwrist 7.92344967127187
lhand -27.81047629482001 23.10826607353811
lfingers 7.12502
lthumb -1.2028791334086706 53.07498075769573
rclavicle -2.586362156249888e-15 3.2306815878322956e-16
rhumerus -31.80069690988815 -21.669600762305112 -77.87333141295971
rradius 23.573428697638207
rwrist 6.96397631866865
rhand -17.45092390496611 23.39738175600692
rfingers 7.12502
rthumb 8.80009121636231 -6.393862310818304
